{"glyphs":{":":{"x_min":0,"x_max":333,"ha":333,"o":"m 167 470 q 201 470 224 446 q 248 422 248 389 q 248 355 224 331 q 201 308 167 308 q 133 308 110 331 q 86 355 86 389 q 86 422 110 446 q 133 470 167 470 z m 167 150 q 201 150 224 126 q 248 103 248 69 q 248 35 224 11 q 200 -12 167 -12 q 133 -12 109 11 q 85 35 85 69 q 85 103 109 126 q 133 150 167 150 z"},"$":{"x_min":0,"x_max":500,"ha":500,"o":"m 276 408 q 393 334 425 296 q 468 246 468 177 q 468 102 417 50 q 367 -2 276 -10 l 276 -67 l 234 -67 l 234 -14 q 182 -13 142 -5 q 102 2 50 22 l 50 180 l 71 180 q 81 126 102 93 q 123 60 155 43 q 187 26 234 22 l 234 264 q 116 337 77 382 q 39 426 39 484 q 39 548 87 596 q 136 645 234 657 l 234 680 l 276 680 l 276 657 q 359 651 443 606 l 443 465 l 424 465 q 410 513 390 543 q 371 574 339 596 q 315 612 276 623 z m 234 625 q 198 622 177 605 q 143 579 143 542 q 143 520 158 497 q 174 474 234 435 z m 276 22 q 318 32 338 56 q 357 80 357 115 q 357 146 340 173 q 323 200 276 234 z"},"?":{"x_min":0,"x_max":500,"ha":500,"o":"m 237 216 l 217 216 q 216 270 222 297 q 229 324 254 371 q 280 418 288 447 q 296 475 296 517 q 296 582 271 613 q 245 644 210 644 q 184 644 166 629 q 152 619 152 607 q 152 599 162 583 q 183 545 183 519 q 183 495 166 479 q 150 462 125 462 q 98 462 80 482 q 61 501 61 533 q 61 590 111 634 q 161 677 250 677 q 345 677 394 632 q 444 587 444 523 q 444 477 418 437 q 393 398 320 350 q 271 318 256 293 q 241 268 237 216 z m 232 145 q 265 145 288 122 q 311 99 311 66 q 311 33 288 10 q 265 -13 232 -13 q 199 -13 176 10 q 153 33 153 66 q 153 99 176 122 q 199 145 232 145 z"},"<":{"x_min":0,"x_max":570,"ha":570,"o":"m 553 90 l 20 308 l 20 348 l 553 568 l 553 500 l 141 328 l 553 159 z"},"'":{"x_min":0,"x_max":278,"ha":278,"o":"m 153 353 l 129 353 l 78 539 q 68 574 68 603 q 68 635 89 656 q 110 677 140 677 q 175 677 194 655 q 212 632 212 606 q 212 584 201 540 z"},"=":{"x_min":0,"x_max":570,"ha":570,"o":"m 20 441 l 554 441 l 554 378 l 20 378 z m 20 282 l 554 282 l 554 218 l 20 218 z"},"a":{"x_min":0,"x_max":500,"ha":500,"o":"m 286 67 q 202 -6 136 -6 q 97 -6 71 19 q 45 45 45 83 q 45 136 90 177 q 135 219 286 289 l 286 334 q 286 386 280 400 q 274 413 259 423 q 243 433 224 433 q 192 433 171 419 q 159 410 159 398 q 159 388 172 373 q 191 352 191 333 q 191 309 173 292 q 155 275 126 275 q 96 275 75 293 q 54 312 54 337 q 54 372 82 404 q 110 436 160 453 q 209 470 263 470 q 328 470 366 443 q 404 415 415 383 q 422 362 422 289 l 422 111 q 422 80 424 72 q 427 64 432 60 q 437 56 443 56 q 456 56 469 74 l 483 62 q 459 26 433 10 q 407 -6 374 -6 q 334 -6 312 12 q 291 30 286 67 z m 286 103 l 286 256 q 227 221 198 182 q 179 155 179 128 q 179 106 195 89 q 207 76 229 76 q 253 76 286 103 z"},"L":{"x_min":0,"x_max":667,"ha":667,"o":"m 631 232 l 606 0 l 19 0 l 19 18 l 41 18 q 69 18 87 28 q 100 35 106 52 q 112 63 112 113 l 112 549 q 112 600 106 612 q 101 625 85 635 q 68 644 41 644 l 19 644 l 19 662 l 372 662 l 372 644 l 343 644 q 314 644 296 634 q 284 627 276 610 q 271 599 271 549 l 271 127 q 271 76 277 62 q 283 48 300 42 q 312 37 359 37 l 414 37 q 467 37 502 56 q 537 74 563 114 q 588 154 611 232 z"},"3":{"x_min":0,"x_max":500,"ha":500,"o":"m 148 332 l 148 349 q 204 365 225 379 q 247 393 262 422 q 278 450 278 479 q 278 520 248 549 q 219 578 175 578 q 106 578 59 506 l 41 512 q 76 594 131 635 q 186 676 253 676 q 322 676 366 634 q 411 592 411 536 q 411 499 390 465 q 370 431 325 405 q 382 377 412 337 q 442 296 442 234 q 442 131 367 58 q 292 -14 167 -14 q 83 -14 44 14 q 16 33 16 64 q 16 86 32 102 q 48 118 69 118 q 85 118 100 111 q 107 107 155 69 q 203 30 244 30 q 280 30 306 58 q 332 87 332 131 q 332 198 285 254 q 238 311 148 332 z"},";":{"x_min":0,"x_max":333,"ha":333,"o":"m 167 470 q 200 470 224 446 q 247 423 247 389 q 247 355 223 332 q 200 308 167 308 q 133 308 109 332 q 85 355 85 389 q 85 423 109 446 q 132 470 167 470 z m 92 -175 l 92 -154 q 148 -129 174 -91 q 200 -52 200 -11 q 200 -3 196 1 q 193 5 189 5 q 187 5 181 2 q 167 -6 146 -6 q 117 -6 95 16 q 74 39 74 69 q 74 101 99 125 q 123 150 158 150 q 200 150 229 117 q 259 85 259 28 q 259 -42 217 -96 q 175 -150 92 -175 z"},"J":{"x_min":0,"x_max":500,"ha":500,"o":"m 142 644 l 142 662 l 494 662 l 494 644 l 473 644 q 443 644 426 634 q 414 627 406 610 q 401 599 401 549 l 401 225 q 401 129 382 86 q 363 43 314 14 q 266 -15 197 -15 q 114 -15 62 29 q 11 73 11 126 q 11 160 32 181 q 53 203 83 203 q 113 203 133 184 q 153 165 153 137 q 153 123 150 113 q 148 108 135 88 q 121 68 121 60 q 121 47 134 38 q 152 24 182 24 q 203 24 217 35 q 230 46 236 69 q 242 91 242 195 l 242 549 q 242 600 236 612 q 230 625 214 635 q 198 644 170 644 z"},"V":{"x_min":0,"x_max":722,"ha":722,"o":"m 712 662 l 712 644 q 676 638 647 605 q 627 581 586 491 l 358 -15 l 342 -15 l 115 511 q 74 606 60 623 q 46 640 8 644 l 8 662 l 325 662 l 325 644 l 314 644 q 271 644 256 633 q 245 626 245 612 q 245 603 249 591 q 252 579 275 527 l 416 197 l 547 491 q 570 544 576 562 q 581 580 581 593 q 581 607 573 619 q 565 630 550 636 q 529 644 495 644 l 495 662 z"},"\"":{"x_min":0,"x_max":555,"ha":555,"o":"m 170 352 l 146 352 l 96 540 q 86 577 86 604 q 86 635 107 656 q 128 677 158 677 q 192 677 211 655 q 230 633 230 607 q 230 585 219 539 z m 406 352 l 382 352 l 333 540 q 321 583 321 606 q 321 634 343 656 q 364 677 395 677 q 429 677 448 654 q 466 631 466 607 q 466 590 453 540 z"},"7":{"x_min":0,"x_max":500,"ha":500,"o":"m 177 -14 l 357 533 l 220 533 q 140 533 99 512 q 71 497 52 457 l 34 457 l 82 662 l 476 662 l 254 -14 z"},"S":{"x_min":0,"x_max":556,"ha":556,"o":"m 470 677 l 475 457 l 455 457 q 441 540 385 590 q 330 641 266 641 q 216 641 187 614 q 158 587 158 553 q 158 531 168 514 q 182 491 213 468 q 236 452 319 411 q 436 354 476 303 q 516 252 516 187 q 516 104 451 44 q 387 -16 287 -16 q 256 -16 228 -9 q 200 -3 158 15 q 135 24 120 24 q 107 24 93 15 q 79 5 70 -15 l 52 -15 l 52 235 l 70 235 q 91 129 153 74 q 214 19 285 19 q 339 19 372 48 q 404 78 404 118 q 404 141 392 163 q 379 185 354 205 q 329 225 264 256 q 174 301 134 332 q 95 363 73 402 q 52 440 52 487 q 52 566 110 622 q 168 677 257 677 q 289 677 319 669 q 342 664 375 648 q 408 632 421 632 q 434 632 441 640 q 449 647 455 677 z"},"}":{"x_min":0,"x_max":394,"ha":394,"o":"m 44 -202 l 44 -180 q 93 -170 116 -145 q 140 -120 140 -88 q 140 -56 128 -7 q 116 42 116 78 q 116 111 136 146 q 155 180 193 205 q 219 221 275 237 q 215 256 188 274 q 151 299 133 333 q 115 367 115 397 q 115 426 127 475 q 139 524 139 560 q 139 595 117 620 q 95 645 44 655 l 44 677 l 62 678 q 111 678 156 655 q 201 631 223 594 q 246 558 246 522 q 246 489 231 431 q 220 387 220 353 q 220 314 244 287 q 268 260 315 252 l 315 223 q 268 215 244 187 q 220 158 220 118 q 220 84 230 43 q 245 -15 245 -45 q 245 -78 226 -110 q 208 -143 179 -163 q 150 -184 116 -193 q 89 -200 44 -202 z"},"Z":{"x_min":0,"x_max":667,"ha":667,"o":"m 610 662 l 221 37 l 347 37 q 437 37 472 48 q 530 66 572 113 q 614 160 630 239 l 649 239 l 623 0 l 16 0 l 406 626 l 308 626 q 250 626 232 623 q 198 616 168 597 q 138 579 118 547 q 99 516 87 468 l 69 468 l 87 662 z"},"x":{"x_min":0,"x_max":500,"ha":500,"o":"m 304 280 l 383 129 q 424 51 448 30 q 461 19 484 18 l 484 0 l 229 0 l 229 18 q 259 20 266 25 q 273 31 273 40 q 273 54 258 83 l 218 157 l 185 108 q 162 74 159 68 q 155 59 155 51 q 155 40 159 32 q 164 25 172 21 q 180 18 202 18 l 202 0 l 23 0 l 23 18 q 56 18 84 36 q 111 54 164 132 l 202 188 l 123 333 q 84 404 65 420 q 46 437 23 438 l 23 457 l 276 457 l 276 438 l 263 438 l 237 429 q 233 426 233 418 q 233 411 236 403 q 237 399 250 376 l 285 310 l 304 336 q 343 390 343 412 q 343 422 334 429 q 326 436 304 438 l 304 457 l 465 457 l 465 438 q 436 438 410 420 q 384 403 352 353 z"},")":{"x_min":0,"x_max":333,"ha":333,"o":"m 12 -200 l 12 -178 q 63 -144 87 -112 q 120 -68 139 0 q 162 86 162 239 q 162 384 141 464 q 120 543 83 593 q 58 627 12 653 l 12 677 q 130 638 212 516 q 293 394 293 236 q 293 80 212 -40 q 130 -161 12 -200 z"},"&":{"x_min":0,"x_max":833,"ha":833,"o":"m 569 396 l 772 396 l 772 377 q 738 372 719 357 q 699 341 668 285 q 637 229 580 160 q 630 115 661 97 q 683 85 704 85 q 740 85 770 132 l 790 122 q 750 43 704 10 q 669 -15 625 -15 q 587 -15 552 1 q 518 18 469 62 q 408 21 354 3 q 300 -15 242 -15 q 149 -15 95 35 q 40 85 40 153 q 40 227 92 281 q 145 335 244 375 q 231 406 225 437 q 219 467 219 495 q 219 573 274 625 q 329 677 414 677 q 483 677 523 643 q 563 608 563 562 q 563 507 522 468 q 481 429 392 396 q 447 299 553 187 q 625 267 625 325 q 625 345 611 360 q 597 374 569 377 z m 375 425 q 426 444 444 466 q 461 488 461 519 q 461 573 433 611 q 414 636 386 636 q 363 636 346 618 q 330 600 330 569 q 330 545 338 518 q 346 490 375 425 z m 258 343 q 219 327 203 308 q 180 281 180 247 q 180 201 206 156 q 233 110 271 85 q 308 61 346 61 q 364 61 387 69 q 411 77 438 93 q 320 213 258 343 z"},"_":{"x_min":0,"x_max":500,"ha":500,"o":"m -9 -152 l 509 -152 l 509 -216 l -9 -216 z"},"v":{"x_min":0,"x_max":500,"ha":500,"o":"m 240 -14 l 86 340 q 58 404 42 421 q 31 434 9 438 l 9 457 l 252 457 l 252 438 q 229 438 221 430 q 209 419 209 405 q 209 387 230 337 l 306 166 l 366 313 q 392 377 392 403 q 392 418 381 428 q 370 438 342 438 l 342 457 l 491 457 l 491 438 q 470 436 456 422 q 442 409 415 345 l 263 -14 z"},"O":{"x_min":0,"x_max":778,"ha":778,"o":"m 386 671 q 544 677 643 579 q 742 481 742 333 q 742 208 668 112 q 571 -15 393 -15 q 214 -15 116 106 q 39 202 39 333 q 39 480 139 579 q 240 677 386 671 z m 392 640 q 301 640 254 547 q 215 471 215 329 q 215 159 275 78 q 316 21 391 21 q 441 21 475 46 q 518 77 542 146 q 566 214 566 325 q 566 456 542 521 q 517 586 479 613 q 441 640 392 640 z"},"(":{"x_min":0,"x_max":333,"ha":333,"o":"m 321 677 l 321 655 q 271 622 247 590 q 213 546 195 477 q 171 392 171 238 q 171 94 193 14 q 214 -66 250 -116 q 276 -150 321 -176 l 321 -200 q 204 -161 122 -39 q 40 83 40 241 q 40 397 122 518 q 203 638 321 677 z"},"C":{"x_min":0,"x_max":722,"ha":722,"o":"m 667 677 l 667 448 l 648 448 q 627 538 568 585 q 510 633 436 633 q 374 633 322 598 q 270 562 246 504 q 215 431 215 340 q 215 251 238 178 q 260 105 308 68 q 356 31 432 31 q 495 31 547 58 q 599 85 656 152 l 656 95 q 601 37 540 11 q 480 -15 399 -15 q 293 -15 211 27 q 129 70 84 149 q 40 229 40 319 q 40 414 89 499 q 139 583 223 630 q 307 677 402 677 q 472 677 549 647 q 594 629 606 629 q 622 629 634 641 q 645 652 648 677 z"},"W":{"x_min":0,"x_max":1000,"ha":1000,"o":"m 991 662 l 991 644 q 973 643 960 634 q 947 625 938 607 q 935 601 907 531 l 699 -15 l 680 -15 l 516 412 l 335 -15 l 317 -15 l 100 525 q 66 607 53 624 q 40 641 9 644 l 9 662 l 296 662 l 296 644 q 261 643 250 634 q 238 624 238 610 q 238 591 262 531 l 392 210 l 496 461 l 469 531 q 446 589 434 608 q 422 627 406 636 q 390 644 359 644 l 359 662 l 680 662 l 680 644 q 646 644 632 639 q 622 635 616 627 q 610 619 610 609 q 610 598 632 540 l 752 227 l 860 510 q 877 554 881 570 q 885 586 885 600 q 885 620 872 632 q 858 643 819 644 l 819 662 z"},"A":{"x_min":0,"x_max":722,"ha":722,"o":"m 416 188 l 182 188 l 154 124 q 141 92 141 71 q 141 43 163 30 q 176 22 228 18 l 228 0 l 8 0 l 8 18 q 43 23 66 48 q 89 72 123 147 l 360 676 l 369 676 l 608 133 q 642 56 664 36 q 681 21 711 18 l 711 0 l 391 0 l 391 18 l 404 18 q 442 18 458 29 q 469 37 469 51 q 469 60 466 69 q 465 74 451 106 z m 399 225 l 301 453 l 199 225 z"},"f":{"x_min":0,"x_max":333,"ha":333,"o":"m 234 409 l 234 92 q 234 46 244 34 q 259 16 301 18 l 301 0 l 32 0 l 32 18 q 63 18 76 25 q 89 31 94 43 q 99 55 99 92 l 99 409 l 32 409 l 32 457 l 99 457 l 99 490 l 98 513 q 98 583 150 630 q 201 677 289 677 q 349 677 378 655 q 407 632 407 605 q 407 583 389 567 q 371 551 341 551 q 316 551 301 564 q 286 577 286 593 q 286 598 289 611 q 291 620 291 627 q 291 637 285 642 q 277 649 266 649 q 252 649 242 638 q 233 626 233 600 l 234 515 l 234 457 l 301 457 l 301 409 z"},"Q":{"x_min":0,"x_max":778,"ha":778,"o":"m 478 -6 q 500 -71 548 -104 q 595 -136 667 -136 q 686 -136 708 -132 l 708 -162 q 634 -181 576 -181 q 485 -181 414 -136 q 342 -92 306 -6 q 186 20 113 112 q 39 204 39 332 q 39 480 139 579 q 238 677 392 677 q 544 677 644 579 q 743 480 743 332 q 743 203 665 108 q 587 13 478 -6 z m 391 640 q 303 640 255 549 q 215 472 215 331 q 215 161 275 79 q 317 21 391 21 q 465 21 507 78 q 567 158 567 320 q 567 479 529 550 q 482 640 391 640 z"},"w":{"x_min":0,"x_max":722,"ha":722,"o":"m 486 -14 l 361 321 l 239 -14 l 213 -14 l 92 317 q 64 393 45 416 q 33 432 8 438 l 8 457 l 239 457 l 239 438 q 215 438 207 432 q 198 425 198 416 q 198 408 213 366 l 280 188 l 345 366 l 340 378 q 325 415 314 425 q 303 435 280 438 l 280 457 l 514 457 l 514 438 q 487 437 479 431 q 472 425 472 414 q 472 403 486 366 l 551 188 l 609 352 q 622 387 622 400 q 622 419 613 428 q 604 437 577 438 l 577 457 l 712 457 l 712 438 q 689 436 676 423 q 663 410 642 349 l 514 -14 z"},"-":{"x_min":0,"x_max":333,"ha":333,"o":"m 309 179 l 24 179 l 24 280 l 309 280 z"},"E":{"x_min":0,"x_max":667,"ha":667,"o":"m 272 624 l 272 354 l 286 354 q 349 354 377 394 q 405 434 413 511 l 432 511 l 432 164 l 413 164 q 407 221 388 257 q 370 293 345 305 q 320 318 272 318 l 272 131 q 272 77 277 64 q 282 52 294 44 q 307 37 335 37 l 375 37 q 468 37 524 80 q 580 123 604 210 l 622 210 l 592 0 l 20 0 l 20 18 l 42 18 q 71 18 88 28 q 101 35 108 52 q 113 63 113 113 l 113 549 q 113 594 111 604 q 106 621 93 630 q 74 644 42 644 l 20 644 l 20 662 l 574 662 l 574 466 l 556 466 q 542 538 516 569 q 490 601 443 615 q 416 624 341 624 z"},"s":{"x_min":0,"x_max":389,"ha":389,"o":"m 322 469 l 330 313 l 313 313 q 283 383 251 408 q 219 434 188 434 q 167 434 153 420 q 139 407 139 389 q 139 376 149 364 q 165 344 236 295 q 308 247 331 213 q 354 179 354 137 q 354 99 334 62 q 315 25 281 6 q 246 -14 204 -14 q 171 -14 117 7 q 102 12 97 12 q 81 12 70 -12 l 54 -12 l 46 152 l 62 152 q 84 87 123 55 q 161 23 195 23 q 219 23 234 37 q 249 52 249 72 q 249 96 234 113 q 219 130 168 165 q 94 216 72 244 q 40 284 40 332 q 40 385 76 427 q 112 470 181 470 q 218 470 253 452 q 266 445 274 445 q 283 445 289 448 q 294 452 306 469 z"},">":{"x_min":0,"x_max":570,"ha":570,"o":"m 20 568 l 553 351 l 553 311 l 20 90 l 20 158 l 433 330 l 20 500 z"},"l":{"x_min":0,"x_max":278,"ha":278,"o":"m 212 662 l 212 95 q 212 46 224 33 q 235 20 268 18 l 268 0 l 21 0 l 21 18 q 51 19 66 35 q 76 46 76 95 l 76 567 q 76 615 64 629 q 53 642 21 644 l 21 662 z"},"8":{"x_min":0,"x_max":500,"ha":500,"o":"m 341 374 q 411 323 438 279 q 465 234 465 177 q 465 97 405 42 q 344 -14 241 -14 q 143 -14 89 35 q 35 83 35 153 q 35 206 66 246 q 97 286 169 319 q 91 379 69 417 q 46 456 46 506 q 46 572 103 623 q 159 673 257 673 q 352 673 403 629 q 454 584 454 521 q 454 475 427 439 q 399 403 341 374 z m 304 399 q 322 423 331 454 q 339 484 339 520 q 339 583 312 617 q 292 643 255 643 q 223 643 200 619 q 177 596 177 561 q 177 525 202 487 q 228 448 304 399 z m 206 296 q 191 282 185 271 q 175 254 167 221 q 159 188 159 153 q 159 107 171 76 q 183 45 204 31 q 226 18 249 18 q 285 18 309 44 q 333 70 333 115 q 333 210 206 296 z"},"\\":{"x_min":0,"x_max":278,"ha":278,"o":"m 1 677 l 62 677 l 281 -15 l 218 -15 z"},"e":{"x_min":0,"x_max":444,"ha":444,"o":"m 420 245 l 170 245 q 174 154 218 101 q 252 61 299 61 q 329 61 353 77 q 376 93 404 136 l 420 125 q 383 49 338 18 q 293 -14 234 -14 q 133 -14 81 64 q 39 127 39 221 q 39 335 100 403 q 162 470 245 470 q 314 470 365 413 q 417 356 420 245 z m 300 277 q 300 356 292 385 q 283 415 265 430 q 255 438 238 438 q 212 438 196 414 q 167 370 167 294 l 167 277 z"},"b":{"x_min":0,"x_max":556,"ha":556,"o":"m 210 662 l 210 411 q 268 470 336 470 q 383 470 425 443 q 466 415 490 364 q 513 313 513 247 q 513 172 483 111 q 454 50 404 18 q 354 -14 290 -14 q 253 -14 224 -2 q 195 10 167 36 l 92 -13 l 75 -13 l 75 567 q 75 607 72 616 q 67 630 56 636 q 46 643 21 644 l 21 662 z m 210 367 l 210 164 q 210 102 213 85 q 218 56 237 38 q 255 21 284 21 q 309 21 327 35 q 345 49 357 91 q 369 133 369 242 q 369 347 342 386 q 323 415 291 415 q 249 415 210 367 z"},"%":{"x_min":0,"x_max":1000,"ha":1000,"o":"m 768 677 l 298 -28 l 232 -28 l 702 677 z m 233 677 q 303 677 350 628 q 398 579 398 501 q 398 422 350 372 q 302 323 231 323 q 162 323 115 371 q 69 418 69 497 q 69 577 117 627 q 164 677 233 677 z m 233 651 q 223 651 216 645 q 204 634 198 606 q 191 579 191 492 q 191 423 200 386 q 205 364 216 354 q 224 347 233 347 q 244 347 250 353 q 262 363 267 386 q 275 423 275 490 q 275 572 268 609 q 262 634 250 646 q 244 651 233 651 z m 765 328 q 835 328 883 279 q 931 230 931 152 q 931 72 882 22 q 834 -27 766 -27 q 698 -27 650 22 q 603 72 603 150 q 603 229 649 278 q 695 328 765 328 z m 766 302 q 756 302 750 296 q 738 286 731 259 q 725 232 725 157 q 725 77 732 42 q 738 17 750 6 q 757 0 767 0 q 776 0 782 5 q 794 17 800 42 q 809 78 809 150 q 809 226 801 261 q 795 287 783 297 q 777 302 766 302 z"},"m":{"x_min":0,"x_max":833,"ha":833,"o":"m 223 457 l 223 396 q 261 438 293 454 q 325 470 363 470 q 407 470 437 450 q 466 429 482 387 q 521 431 557 451 q 593 470 632 470 q 680 470 708 448 q 736 427 747 393 q 758 360 758 287 l 758 100 q 758 47 767 34 q 777 21 807 18 l 807 0 l 571 0 l 571 18 q 599 20 612 39 q 621 52 621 100 l 621 296 q 621 357 616 374 q 611 390 601 398 q 590 406 576 406 q 555 406 534 391 q 512 375 490 345 l 490 100 q 490 50 499 38 q 510 20 542 18 l 542 0 l 305 0 l 305 18 q 324 19 335 27 q 346 36 350 48 q 354 60 354 100 l 354 296 q 354 358 349 374 q 344 389 332 398 q 321 407 308 407 q 288 407 272 396 q 249 381 223 345 l 223 100 q 223 51 233 36 q 242 21 272 18 l 272 0 l 37 0 l 37 18 q 66 21 78 36 q 86 47 86 100 l 86 357 q 86 409 77 422 q 67 435 37 438 l 37 457 z"},"#":{"x_min":0,"x_max":500,"ha":500,"o":"m 44 -14 l 86 193 l 20 193 l 20 258 l 99 258 l 127 401 l 20 401 l 20 464 l 140 464 l 183 676 l 247 676 l 204 464 l 348 464 l 390 676 l 455 676 l 412 464 l 480 464 l 480 401 l 399 401 l 370 258 l 480 258 l 480 193 l 358 193 l 316 -14 l 251 -14 l 293 193 l 151 193 l 107 -14 z m 164 258 l 307 258 l 335 401 l 192 401 z"},",":{"x_min":0,"x_max":250,"ha":250,"o":"m 50 -175 l 50 -154 q 106 -129 132 -91 q 158 -52 158 -11 q 158 -3 154 1 q 151 5 147 5 q 145 5 139 2 q 125 -6 104 -6 q 75 -6 53 16 q 32 39 32 69 q 32 101 57 125 q 81 150 116 150 q 158 150 188 117 q 217 85 217 28 q 217 -42 175 -96 q 133 -150 50 -175 z"},"n":{"x_min":0,"x_max":556,"ha":556,"o":"m 220 457 l 220 397 q 255 436 288 453 q 320 470 357 470 q 401 470 431 446 q 460 421 470 384 q 478 356 478 277 l 478 100 q 478 47 487 34 q 497 21 527 18 l 527 0 l 296 0 l 296 18 q 322 21 333 39 q 341 51 341 100 l 341 303 q 341 359 336 374 q 332 388 322 396 q 311 404 298 404 q 256 404 220 344 l 220 100 q 220 48 230 35 q 239 21 265 18 l 265 0 l 34 0 l 34 18 q 63 21 75 36 q 83 47 83 100 l 83 357 q 83 409 74 422 q 64 435 34 438 l 34 457 z"},"h":{"x_min":0,"x_max":556,"ha":556,"o":"m 220 662 l 220 398 q 258 438 289 454 q 320 470 354 470 q 397 470 427 446 q 458 421 468 388 q 478 355 478 277 l 478 99 q 478 47 488 34 q 498 21 527 18 l 527 0 l 296 0 l 296 18 q 320 21 333 37 q 341 50 341 99 l 341 303 q 341 359 337 374 q 333 388 322 396 q 312 404 298 404 q 279 404 260 391 q 242 377 220 344 l 220 99 q 220 50 228 38 q 237 21 266 18 l 266 0 l 34 0 l 34 18 q 63 21 75 36 q 83 47 83 99 l 83 563 q 83 615 74 627 q 64 640 34 644 l 34 662 z"},"z":{"x_min":0,"x_max":444,"ha":444,"o":"m 408 0 l 10 0 l 10 11 l 261 427 l 188 427 q 141 427 120 418 q 100 410 87 391 q 74 372 61 324 l 43 324 l 43 457 l 428 457 l 428 443 l 179 31 l 210 31 q 304 31 345 58 q 387 85 408 156 l 421 156 z"},"B":{"x_min":0,"x_max":667,"ha":667,"o":"m 445 351 q 539 329 577 298 q 632 253 632 183 q 632 108 572 59 q 498 0 357 0 l 21 0 l 21 18 q 67 18 83 27 q 100 35 106 49 q 113 62 113 116 l 113 546 q 113 600 106 614 q 100 627 83 636 q 66 644 21 644 l 21 662 l 338 662 q 452 662 500 642 q 547 622 574 581 q 602 541 602 496 q 602 448 567 410 q 532 373 445 351 z m 267 364 q 336 364 369 380 q 402 396 420 424 q 438 452 438 496 q 438 540 420 568 q 403 596 371 611 q 338 625 267 625 z m 267 326 l 267 114 l 267 89 q 267 63 280 50 q 293 36 320 36 q 359 36 392 53 q 425 71 442 104 q 460 137 460 177 q 460 224 438 260 q 417 297 379 312 q 342 327 267 326 z"},"K":{"x_min":0,"x_max":778,"ha":778,"o":"m 417 409 l 649 117 q 699 56 734 34 q 760 18 789 18 l 789 0 l 444 0 l 444 18 q 477 21 487 28 q 496 36 496 46 q 496 67 451 124 l 299 314 l 275 294 l 275 113 q 275 62 281 49 q 287 36 303 27 q 320 18 356 18 l 356 0 l 22 0 l 22 18 l 44 18 q 73 18 91 28 q 104 35 110 52 q 116 63 116 113 l 116 549 q 116 600 110 612 q 105 625 89 635 q 72 644 44 644 l 22 644 l 22 662 l 352 662 l 352 644 q 318 644 301 634 q 288 627 281 611 q 275 599 275 549 l 275 343 l 521 542 q 572 583 572 608 q 572 626 551 637 q 540 643 498 644 l 498 662 l 756 662 l 756 644 q 721 642 701 632 q 682 622 610 564 z"},"R":{"x_min":0,"x_max":722,"ha":722,"o":"m 266 302 l 266 116 q 266 62 272 49 q 279 35 295 26 q 312 18 357 18 l 357 0 l 19 0 l 19 18 q 64 18 81 27 q 97 35 104 49 q 110 62 110 116 l 110 546 q 110 600 104 614 q 97 627 81 636 q 64 644 19 644 l 19 662 l 326 662 q 446 662 502 646 q 558 629 593 584 q 628 540 628 479 q 628 406 575 358 q 542 328 481 313 l 640 89 q 671 45 685 35 q 705 20 731 18 l 731 0 l 522 0 l 309 302 z m 266 626 l 266 336 l 293 336 q 361 336 395 349 q 429 361 448 394 q 467 426 467 479 q 467 554 432 590 q 396 626 318 626 z"},"T":{"x_min":0,"x_max":667,"ha":667,"o":"m 631 662 l 631 483 l 613 483 q 598 545 579 572 q 560 599 526 615 q 508 624 461 624 l 412 624 l 412 113 q 412 62 418 50 q 423 37 440 28 q 456 18 484 18 l 506 18 l 506 0 l 160 0 l 160 18 l 182 18 q 210 18 228 28 q 241 35 248 52 q 253 63 253 113 l 253 624 l 206 624 q 139 624 108 596 q 66 556 55 483 l 36 483 l 36 662 z"},"P":{"x_min":0,"x_max":611,"ha":611,"o":"m 270 300 l 270 116 q 270 62 277 49 q 283 35 300 26 q 317 18 362 18 l 362 0 l 25 0 l 25 18 q 71 18 88 27 q 104 35 111 49 q 117 62 117 116 l 117 546 q 117 600 111 614 q 104 627 87 636 q 71 644 25 644 l 25 662 l 314 662 q 457 662 519 611 q 581 561 581 484 q 581 420 541 374 q 500 328 430 312 q 383 300 270 300 z m 270 624 l 270 338 q 286 337 294 337 q 354 337 386 372 q 418 408 418 482 q 418 556 386 590 q 354 624 290 624 z"},"|":{"x_min":0,"x_max":220,"ha":220,"o":"m 78 -216 l 78 677 l 141 677 l 141 -216 z"},"t":{"x_min":0,"x_max":333,"ha":333,"o":"m 215 624 l 215 457 l 323 457 l 323 408 l 215 408 l 215 126 q 215 87 219 75 q 222 64 231 57 q 241 50 249 50 q 280 50 309 98 l 323 87 q 284 -6 195 -6 q 151 -6 121 18 q 91 42 83 72 q 78 88 78 162 l 78 408 l 19 408 l 19 425 q 80 469 123 517 q 167 564 199 624 z"},"M":{"x_min":0,"x_max":944,"ha":944,"o":"m 477 226 l 656 662 l 926 662 l 926 644 l 904 644 q 875 644 857 634 q 845 627 838 611 q 833 599 833 550 l 833 113 q 833 62 838 50 q 843 37 860 28 q 876 18 904 18 l 926 18 l 926 0 l 580 0 l 580 18 l 602 18 q 631 18 648 28 q 661 35 668 52 q 673 63 673 113 l 673 604 l 419 0 l 408 0 l 150 600 l 150 133 q 150 84 152 73 q 159 49 180 33 q 201 18 247 18 l 247 0 l 20 0 l 20 18 l 27 18 q 49 18 68 25 q 87 33 97 45 q 106 58 112 81 q 113 86 113 131 l 113 550 q 113 600 107 613 q 102 625 85 635 q 69 644 41 644 l 20 644 l 20 662 l 291 662 z"},"g":{"x_min":0,"x_max":500,"ha":500,"o":"m 327 451 l 480 451 l 480 397 l 393 397 q 417 374 426 354 q 438 328 438 299 q 438 250 411 214 q 384 178 337 158 q 291 138 254 138 q 251 138 196 140 q 174 140 159 126 q 144 111 144 91 q 144 74 157 62 q 171 51 201 51 l 286 52 q 388 52 427 30 q 482 -1 482 -66 q 482 -108 457 -142 q 431 -176 390 -192 q 327 -216 245 -216 q 183 -216 132 -204 q 82 -192 60 -171 q 38 -149 38 -126 q 38 -104 54 -86 q 71 -68 117 -56 q 54 -24 54 31 q 54 65 80 97 q 105 128 162 152 q 96 176 67 215 q 38 254 38 305 q 38 372 92 421 q 147 470 233 470 q 278 470 327 451 z m 242 440 q 214 440 194 411 q 175 383 175 293 q 175 220 194 193 q 213 166 240 166 q 269 166 289 193 q 308 220 308 297 q 308 385 286 417 q 271 440 242 440 z m 213 -67 q 164 -67 147 -76 q 120 -91 120 -117 q 120 -142 148 -162 q 177 -182 257 -182 q 325 -182 364 -164 q 402 -146 402 -113 q 402 -101 395 -93 q 382 -78 355 -73 q 329 -67 213 -67 z"},"j":{"x_min":0,"x_max":333,"ha":333,"o":"m 174 677 q 205 677 227 656 q 249 634 249 603 q 249 572 227 550 q 205 528 174 528 q 143 528 121 550 q 99 572 99 603 q 99 634 121 656 q 143 677 174 677 z m 242 457 l 242 -16 q 242 -83 234 -114 q 222 -160 185 -188 q 149 -216 89 -216 q 29 -216 1 -191 q -28 -167 -28 -132 q -28 -111 -13 -95 q 2 -79 22 -79 q 41 -79 51 -90 q 62 -101 62 -123 q 62 -129 62 -137 q 61 -147 61 -151 q 61 -168 68 -176 q 76 -185 88 -185 q 100 -185 108 -175 q 116 -165 116 -147 q 116 -137 113 -107 q 108 -53 107 -42 l 106 74 l 106 356 l 106 381 q 106 412 96 424 q 85 435 52 438 l 52 457 z"},"i":{"x_min":0,"x_max":278,"ha":278,"o":"m 144 678 q 175 678 197 656 q 219 633 219 602 q 219 571 197 549 q 175 527 144 527 q 112 527 90 549 q 68 571 68 602 q 68 633 90 656 q 112 678 144 678 z m 212 457 l 212 95 q 212 46 223 33 q 234 20 267 18 l 267 0 l 21 0 l 21 18 q 51 19 65 35 q 75 46 75 95 l 75 361 q 75 410 64 423 q 53 437 21 438 l 21 457 z"},"y":{"x_min":0,"x_max":500,"ha":500,"o":"m 243 -19 l 96 320 q 62 396 47 414 q 31 432 8 438 l 8 457 l 251 457 l 251 438 q 227 438 217 429 q 208 421 208 409 q 208 391 232 336 l 310 157 l 363 295 q 392 369 392 398 q 392 416 380 427 q 368 438 338 438 l 338 457 l 491 457 l 491 438 q 468 436 454 421 q 440 406 407 320 l 276 -19 q 227 -146 203 -175 q 169 -216 119 -216 q 78 -216 53 -193 q 28 -169 28 -137 q 28 -108 45 -90 q 62 -71 88 -71 q 112 -71 127 -87 q 142 -103 143 -135 q 143 -154 147 -159 q 151 -165 158 -165 q 170 -165 183 -150 q 203 -130 229 -57 z"},"@":{"x_min":0,"x_max":930,"ha":930,"o":"m 576 452 l 695 457 l 605 150 q 590 99 590 74 q 590 58 602 47 q 613 35 630 35 q 664 35 717 74 q 771 113 805 185 q 840 257 840 338 q 840 473 754 560 q 667 646 528 646 q 408 646 310 590 q 211 534 154 426 q 96 319 96 196 q 96 27 204 -81 q 312 -188 478 -188 q 615 -188 724 -115 q 833 -41 878 81 l 908 81 q 850 -63 738 -139 q 625 -216 477 -216 q 289 -216 167 -94 q 45 27 45 213 q 45 341 105 450 q 166 559 275 618 q 385 677 518 677 q 625 677 706 634 q 787 591 828 513 q 868 435 868 348 q 868 247 824 163 q 781 80 716 40 q 650 0 575 0 q 527 0 501 24 q 476 48 476 85 q 476 112 488 154 q 447 87 425 61 q 394 26 364 10 q 344 0 319 0 q 285 0 261 28 q 237 55 237 108 q 237 163 253 216 q 269 268 296 314 q 324 360 360 397 q 396 434 440 458 q 463 470 490 470 q 517 470 535 453 q 553 436 559 394 z m 502 435 q 483 435 465 415 q 441 387 413 322 q 363 205 363 134 q 363 113 372 101 q 381 89 392 89 q 401 89 419 103 q 444 122 472 167 q 500 213 519 268 q 537 324 537 371 q 537 404 524 422 q 515 435 502 435 z"},".":{"x_min":0,"x_max":250,"ha":250,"o":"m 125 150 q 159 150 183 126 q 207 103 207 69 q 207 35 183 11 q 159 -12 125 -12 q 91 -12 68 11 q 44 35 44 69 q 44 103 68 126 q 91 150 125 150 z"},"p":{"x_min":0,"x_max":556,"ha":556,"o":"m 210 46 l 210 -124 q 210 -159 216 -171 q 222 -184 233 -190 q 245 -196 279 -196 l 279 -214 l 19 -214 l 19 -196 q 49 -195 64 -179 q 74 -167 74 -121 l 74 361 q 74 410 62 423 q 51 437 19 438 l 19 457 l 210 457 l 210 396 q 234 432 259 447 q 295 470 337 470 q 387 470 428 438 q 470 407 491 351 q 513 295 513 230 q 513 161 490 104 q 468 46 426 16 q 384 -14 332 -14 q 294 -14 262 3 q 237 16 210 46 z m 210 96 q 252 36 300 36 q 327 36 344 64 q 369 105 369 220 q 369 338 341 382 q 323 411 292 411 q 242 411 210 339 z"},"X":{"x_min":0,"x_max":722,"ha":722,"o":"m 422 388 l 605 117 q 650 50 670 35 q 689 21 715 18 l 715 0 l 393 0 l 393 18 q 431 21 442 30 q 454 39 454 51 q 454 60 450 67 q 443 82 416 122 l 319 265 l 218 141 q 173 85 173 65 q 173 51 185 39 q 196 26 219 21 q 229 18 261 18 l 261 0 l 7 0 l 7 18 q 50 24 75 42 q 108 64 167 135 l 298 295 l 129 543 q 88 604 82 611 q 69 627 56 634 q 43 641 21 644 l 21 662 l 350 662 l 350 644 l 333 644 q 305 644 293 635 q 282 626 282 612 q 282 602 286 594 l 319 543 l 401 418 l 471 503 q 525 569 525 596 q 525 609 517 620 q 510 631 496 638 q 481 644 452 644 l 452 662 l 695 662 l 695 644 q 667 644 649 637 q 631 630 611 612 q 599 601 548 540 z"},"*":{"x_min":0,"x_max":500,"ha":500,"o":"m 241 484 q 239 513 235 527 q 231 542 215 573 q 199 604 199 621 q 199 643 215 660 q 231 677 250 677 q 271 677 286 661 q 302 646 302 620 q 302 600 287 572 q 271 543 267 529 q 263 514 261 484 q 288 496 300 504 q 312 512 334 537 q 365 569 394 569 q 415 569 430 555 q 444 541 444 521 q 444 500 426 484 q 408 468 379 468 q 370 468 345 470 q 333 470 319 470 q 301 470 265 468 q 286 444 297 435 q 309 426 338 412 q 367 397 379 380 q 389 368 389 349 q 389 328 375 314 q 360 299 340 299 q 319 299 302 317 q 286 334 279 378 q 275 407 271 420 q 266 434 251 459 q 235 433 229 419 q 224 405 220 378 q 214 334 198 317 q 182 301 160 301 q 140 301 126 314 q 111 328 111 347 q 111 367 122 382 q 133 397 163 414 q 192 430 204 438 q 215 447 236 468 l 184 470 q 170 470 158 470 q 129 468 119 468 q 91 468 73 483 q 56 499 56 521 q 56 541 70 555 q 84 569 106 569 q 137 569 166 540 q 194 511 202 504 q 214 496 241 484 z"},"Y":{"x_min":0,"x_max":722,"ha":722,"o":"m 711 662 l 711 644 q 678 640 661 625 q 636 604 583 513 l 440 273 l 440 113 q 440 62 445 50 q 451 37 467 28 q 482 18 509 18 l 546 18 l 546 0 l 174 0 l 174 18 l 209 18 q 238 18 255 28 q 268 35 275 52 q 281 63 281 113 l 281 246 l 125 530 q 79 614 60 629 q 41 644 9 644 l 9 662 l 326 662 l 326 644 l 312 644 q 283 644 272 636 q 260 627 260 618 q 260 601 299 530 l 419 311 l 538 510 q 583 583 583 607 q 583 621 570 629 q 553 642 509 644 l 509 662 z"},"c":{"x_min":0,"x_max":444,"ha":444,"o":"m 406 118 l 421 106 q 389 45 341 16 q 293 -14 239 -14 q 147 -14 93 55 q 38 124 38 221 q 38 314 88 385 q 148 470 253 470 q 324 470 366 435 q 408 399 408 355 q 408 327 391 311 q 374 294 347 294 q 318 294 299 313 q 280 332 276 381 q 273 412 262 424 q 250 436 235 436 q 212 436 195 411 q 170 374 170 296 q 170 231 190 173 q 211 114 247 85 q 273 64 310 64 q 334 64 355 75 q 377 86 406 118 z"},"!":{"x_min":0,"x_max":333,"ha":333,"o":"m 178 215 l 156 215 q 153 271 134 350 l 108 457 q 85 552 85 594 q 85 631 108 654 q 130 677 167 677 q 202 677 225 654 q 248 631 248 595 q 248 558 224 457 l 198 350 q 184 293 178 215 z m 167 146 q 200 146 223 122 q 247 99 247 66 q 247 33 223 10 q 200 -13 167 -13 q 135 -13 112 10 q 88 33 88 66 q 88 99 111 122 q 134 146 167 146 z"},"/":{"x_min":0,"x_max":278,"ha":278,"o":"m 281 677 l 63 -15 l 1 -15 l 219 677 z"},"[":{"x_min":0,"x_max":333,"ha":333,"o":"m 104 -183 l 104 662 l 301 662 l 301 642 l 279 642 q 247 642 236 635 q 225 628 219 615 q 213 603 213 553 l 213 -77 q 213 -124 215 -131 q 220 -148 232 -157 q 244 -165 279 -165 l 301 -165 l 301 -183 z"},"6":{"x_min":0,"x_max":500,"ha":500,"o":"m 470 676 l 470 662 q 381 640 328 604 q 274 569 243 518 q 212 468 195 393 q 217 408 231 412 q 263 422 295 422 q 369 422 419 368 q 468 314 468 221 q 468 155 441 101 q 415 46 365 16 q 316 -14 260 -14 q 199 -14 147 20 q 95 53 66 118 q 37 182 37 258 q 37 369 91 465 q 144 561 242 618 q 341 675 470 676 z m 189 354 q 185 286 185 255 q 185 188 198 125 q 211 62 233 36 q 250 18 271 18 q 294 18 312 44 q 329 70 329 150 q 329 285 296 336 q 275 370 240 370 q 220 370 189 354 z"},"r":{"x_min":0,"x_max":444,"ha":444,"o":"m 223 457 l 223 353 q 269 424 303 447 q 337 470 369 470 q 396 470 412 453 q 429 437 429 406 q 429 373 413 355 q 397 337 375 337 q 349 337 330 354 q 311 370 307 372 q 302 375 296 375 q 282 375 269 364 q 249 348 239 317 q 223 270 223 212 l 223 107 l 224 80 q 224 52 227 44 q 233 31 244 25 q 256 19 283 18 l 283 0 l 37 0 l 37 18 q 66 20 77 34 q 87 48 87 107 l 87 360 q 87 399 83 410 q 79 423 69 430 q 60 436 37 438 l 37 457 z"},"2":{"x_min":0,"x_max":500,"ha":500,"o":"m 414 0 l 24 0 l 24 11 q 204 224 242 298 q 280 372 280 442 q 280 493 249 527 q 217 561 171 561 q 96 561 54 486 l 36 492 q 62 586 116 631 q 170 676 240 676 q 291 676 332 652 q 374 629 397 588 q 420 547 420 512 q 420 447 384 380 q 335 290 169 128 l 312 128 q 365 128 381 132 q 396 137 407 147 q 417 158 434 191 l 451 191 z"},"{":{"x_min":0,"x_max":394,"ha":394,"o":"m 352 677 l 352 655 q 303 646 280 621 q 256 596 256 563 q 256 531 268 482 q 280 434 280 397 q 280 364 260 330 q 240 295 203 271 q 177 254 121 239 q 181 220 208 201 q 245 176 263 143 q 281 109 281 79 q 281 49 269 0 q 257 -48 257 -84 q 257 -119 279 -144 q 301 -169 352 -179 l 352 -202 l 334 -202 q 285 -203 240 -179 q 195 -156 173 -119 q 150 -82 150 -47 q 150 -14 165 45 q 176 88 176 123 q 176 161 152 188 q 127 215 81 223 l 81 253 q 127 261 152 289 q 176 317 176 358 q 176 391 166 433 q 150 491 150 521 q 150 553 169 585 q 188 618 217 639 q 246 659 280 668 q 307 676 352 677 z"},"9":{"x_min":0,"x_max":500,"ha":500,"o":"m 31 -14 l 31 0 q 112 19 168 55 q 225 91 258 144 q 291 197 304 267 q 273 251 252 245 q 231 239 208 239 q 132 239 82 293 q 32 347 32 441 q 32 507 59 561 q 86 616 137 646 q 187 676 241 676 q 299 676 351 643 q 403 609 434 546 q 464 483 464 403 q 464 298 414 203 q 364 107 265 49 q 166 -9 31 -14 z m 311 308 q 316 362 316 404 q 316 493 295 569 q 284 612 261 632 q 249 643 229 643 q 205 643 191 622 q 172 593 172 512 q 172 376 204 325 q 225 292 261 292 q 280 292 311 308 z"}," ":{"x_min":0,"x_max":250,"ha":250,"o":""},"I":{"x_min":0,"x_max":389,"ha":389,"o":"m 366 18 l 366 0 l 20 0 l 20 18 l 42 18 q 71 18 88 28 q 101 35 108 52 q 113 63 113 113 l 113 549 q 113 600 108 612 q 103 625 86 635 q 70 644 42 644 l 20 644 l 20 662 l 366 662 l 366 644 l 344 644 q 315 644 298 634 q 285 627 278 610 q 272 599 272 549 l 272 113 q 272 62 278 50 q 284 37 300 28 q 316 18 344 18 z"},"H":{"x_min":0,"x_max":778,"ha":778,"o":"m 273 318 l 273 113 q 273 62 279 50 q 285 37 301 28 q 317 18 345 18 l 367 18 l 367 0 l 21 0 l 21 18 l 43 18 q 72 18 89 28 q 102 35 109 52 q 114 63 114 113 l 114 549 q 114 600 109 612 q 104 625 87 635 q 71 644 43 644 l 21 644 l 21 662 l 367 662 l 367 644 l 345 644 q 316 644 299 634 q 286 627 279 610 q 273 599 273 549 l 273 361 l 507 361 l 507 549 q 507 600 502 612 q 497 625 480 635 q 463 644 436 644 l 414 644 l 414 662 l 760 662 l 760 644 l 738 644 q 709 644 692 634 q 679 627 672 610 q 667 599 667 549 l 667 113 q 667 62 672 50 q 677 37 694 28 q 710 18 738 18 l 760 18 l 760 0 l 414 0 l 414 18 l 436 18 q 465 18 482 28 q 495 35 502 52 q 507 63 507 113 l 507 318 z"},"4":{"x_min":0,"x_max":500,"ha":500,"o":"m 25 250 l 339 676 l 399 676 l 399 250 l 459 250 l 459 148 l 399 148 l 399 0 l 265 0 l 265 148 l 25 148 z m 72 250 l 265 250 l 265 511 z"},"~":{"x_min":0,"x_max":520,"ha":520,"o":"m 510 346 l 538 346 q 535 269 497 229 q 460 188 406 188 q 380 188 351 197 q 322 205 223 247 q 152 276 120 276 q 87 276 65 256 q 42 236 34 189 l 6 189 q 10 269 46 308 q 82 347 133 347 q 159 347 184 340 q 233 326 320 289 q 367 268 392 261 q 406 257 423 257 q 458 257 482 280 q 505 303 510 346 z"},"D":{"x_min":0,"x_max":722,"ha":722,"o":"m 13 0 l 13 18 l 35 18 q 64 18 79 27 q 95 36 102 52 q 106 62 106 113 l 106 549 q 106 600 101 612 q 96 625 79 635 q 63 644 35 644 l 13 644 l 13 662 l 310 662 q 428 662 500 630 q 589 590 635 510 q 680 430 680 329 q 680 259 658 200 q 635 142 600 103 q 564 65 517 42 q 471 19 403 6 q 374 0 310 0 z m 266 625 l 266 108 q 266 67 270 58 q 273 48 283 43 q 296 36 321 36 q 402 36 445 92 q 504 167 504 325 q 504 453 464 529 q 432 588 382 610 q 347 625 266 625 z"},"^":{"x_min":0,"x_max":581,"ha":581,"o":"m 72 325 l 272 676 l 312 676 l 510 325 l 432 325 l 288 575 l 146 325 z"},"0":{"x_min":0,"x_max":500,"ha":500,"o":"m 463 331 q 463 232 436 146 q 419 93 391 60 q 363 26 327 6 q 292 -14 250 -14 q 202 -14 163 11 q 125 35 95 81 q 73 114 57 169 q 36 244 36 323 q 36 431 66 521 q 91 596 142 636 q 193 676 250 676 q 307 676 357 636 q 407 597 431 531 q 463 439 463 331 z m 313 332 q 313 506 311 535 q 306 603 288 626 q 275 642 248 642 q 227 642 215 630 q 197 613 190 570 q 184 527 184 269 q 184 128 194 80 q 201 45 215 34 q 229 22 251 22 q 275 22 288 38 q 308 65 311 122 z"},"F":{"x_min":0,"x_max":611,"ha":611,"o":"m 275 624 l 275 352 l 294 352 q 338 352 366 365 q 394 378 413 410 q 432 441 438 494 l 455 494 l 455 162 l 438 162 q 429 256 387 286 q 346 316 294 316 l 275 316 l 275 113 q 275 62 281 50 q 286 37 302 28 q 319 18 347 18 l 369 18 l 369 0 l 22 0 l 22 18 l 44 18 q 73 18 91 28 q 104 35 110 52 q 116 63 116 113 l 116 549 q 116 600 110 612 q 105 625 89 635 q 72 644 44 644 l 22 644 l 22 662 l 581 662 l 581 472 l 561 472 q 554 539 526 571 q 498 604 445 617 q 416 624 336 624 z"},"`":{"x_min":0,"x_max":333,"ha":333,"o":"m 19 685 l 166 685 l 222 515 l 181 515 z"},"k":{"x_min":0,"x_max":556,"ha":556,"o":"m 219 662 l 219 227 l 325 331 q 358 362 366 376 q 374 391 374 404 q 374 417 363 426 q 353 435 321 438 l 321 457 l 526 457 l 526 438 q 497 437 475 425 q 453 412 389 350 l 339 301 l 446 144 q 511 48 523 36 q 540 20 565 18 l 565 0 l 330 0 l 330 18 q 345 18 352 23 q 359 29 359 36 q 359 47 339 78 l 249 210 l 219 181 l 219 99 q 219 47 229 34 q 239 21 269 18 l 269 0 l 33 0 l 33 18 q 62 21 74 36 q 83 47 83 99 l 83 563 q 83 615 73 627 q 63 640 33 644 l 33 662 z"},"u":{"x_min":0,"x_max":556,"ha":556,"o":"m 475 457 l 475 99 q 475 47 484 34 q 494 21 524 18 l 524 0 l 338 0 l 338 61 q 305 22 272 4 q 240 -14 199 -14 q 161 -14 131 10 q 101 34 90 65 q 80 97 80 176 l 80 357 q 80 409 71 422 q 61 435 31 438 l 31 457 l 217 457 l 217 145 q 217 96 221 82 q 226 67 236 60 q 246 53 259 53 q 277 53 291 62 q 311 75 338 113 l 338 357 q 338 409 328 422 q 319 435 289 438 l 289 457 z"},"]":{"x_min":0,"x_max":333,"ha":333,"o":"m 229 662 l 229 -183 l 33 -183 l 33 -164 l 55 -164 q 87 -164 98 -158 q 109 -151 115 -138 q 120 -125 120 -76 l 120 555 q 120 602 118 608 q 114 625 102 634 q 90 643 55 643 l 33 643 l 33 662 z"},"U":{"x_min":0,"x_max":722,"ha":722,"o":"m 23 662 l 365 662 l 365 644 l 348 644 q 310 644 295 636 q 281 628 275 614 q 269 600 269 543 l 269 219 q 269 130 282 101 q 295 72 326 53 q 357 34 404 34 q 458 34 495 58 q 533 83 552 125 q 571 167 571 273 l 571 543 q 571 587 562 606 q 552 625 538 633 q 516 644 476 644 l 476 662 l 705 662 l 705 644 l 691 644 q 664 644 645 633 q 626 622 618 599 q 612 583 612 543 l 612 292 q 612 175 596 123 q 581 71 521 28 q 462 -16 359 -16 q 273 -16 226 7 q 162 39 136 87 q 109 136 109 219 l 109 543 q 109 600 103 614 q 97 628 81 636 q 65 645 23 644 z"},"o":{"x_min":0,"x_max":500,"ha":500,"o":"m 249 470 q 309 470 360 439 q 411 409 438 352 q 464 295 464 228 q 464 131 415 65 q 355 -14 250 -14 q 147 -14 92 59 q 36 131 36 226 q 36 324 93 397 q 150 470 249 470 z m 251 436 q 226 436 208 417 q 190 398 185 343 q 179 287 179 188 q 179 136 186 91 q 191 56 209 38 q 227 20 249 20 q 271 20 286 32 q 305 49 311 79 q 321 125 321 266 q 321 349 312 380 q 302 411 284 425 q 271 436 251 436 z"},"N":{"x_min":0,"x_max":722,"ha":722,"o":"m 249 662 l 576 251 l 576 536 q 576 596 559 617 q 535 645 480 644 l 480 662 l 699 662 l 699 644 q 657 639 642 630 q 628 622 620 602 q 612 583 612 536 l 612 -15 l 595 -15 l 147 536 l 147 115 q 147 58 174 38 q 200 18 233 18 l 249 18 l 249 0 l 14 0 l 14 18 q 69 19 90 41 q 112 62 112 115 l 112 583 l 98 600 q 77 626 61 635 q 44 643 14 644 l 14 662 z"},"+":{"x_min":0,"x_max":570,"ha":570,"o":"m 20 363 l 254 363 l 254 598 l 318 598 l 318 363 l 553 363 l 553 299 l 318 299 l 318 66 l 254 66 l 254 299 l 20 299 z"},"G":{"x_min":0,"x_max":778,"ha":778,"o":"m 690 677 l 690 444 l 672 444 q 639 540 574 589 q 508 639 431 639 q 356 639 307 597 q 258 556 237 481 q 217 406 217 328 q 217 232 239 161 q 262 89 312 55 q 362 21 431 21 q 455 21 480 27 q 505 32 531 42 l 531 179 q 531 218 526 230 q 521 241 504 250 q 487 260 463 260 l 446 260 l 446 278 l 768 278 l 768 260 q 731 257 717 250 q 702 242 694 225 q 690 215 690 179 l 690 42 q 626 13 558 -1 q 489 -16 416 -16 q 321 -16 259 10 q 197 36 149 77 q 102 119 75 171 q 41 239 41 322 q 41 472 146 575 q 250 678 410 678 q 459 678 499 670 q 520 666 568 648 q 616 629 625 629 q 639 629 650 639 q 662 649 672 677 z"},"q":{"x_min":0,"x_max":556,"ha":556,"o":"m 340 48 q 311 17 285 4 q 250 -14 213 -14 q 127 -14 78 63 q 38 124 38 209 q 38 280 68 342 q 98 404 151 437 q 203 470 262 470 q 301 470 331 457 q 362 444 384 417 l 460 470 l 477 470 l 477 -121 q 477 -166 485 -177 q 498 -195 536 -196 l 536 -214 l 272 -214 l 272 -196 q 303 -196 316 -189 q 330 -182 335 -171 q 340 -160 340 -125 z m 340 92 l 340 280 q 340 359 332 384 q 323 410 300 428 q 289 438 271 438 q 233 438 213 405 q 181 354 181 218 q 181 113 208 70 q 228 42 258 42 q 275 42 298 54 q 320 66 340 92 z"},"d":{"x_min":0,"x_max":556,"ha":556,"o":"m 478 662 l 478 137 q 478 83 480 74 q 484 58 495 50 q 506 42 534 40 l 534 24 l 341 -14 l 341 59 q 306 17 279 1 q 252 -14 218 -14 q 130 -14 80 64 q 39 128 39 220 q 39 294 64 352 q 89 411 134 440 q 178 470 229 470 q 261 470 287 458 q 312 445 341 413 l 341 551 q 341 603 336 614 q 331 628 319 635 q 307 642 275 642 l 275 662 z m 341 353 q 305 422 252 422 q 234 422 223 412 q 205 397 193 359 q 182 321 182 242 q 182 156 194 114 q 207 73 229 54 q 240 45 260 45 q 303 45 341 112 z"},"1":{"x_min":0,"x_max":500,"ha":500,"o":"m 326 676 l 326 134 q 326 73 331 56 q 336 40 354 29 q 371 18 408 18 l 423 18 l 423 0 l 75 0 l 75 18 l 92 18 q 135 18 153 28 q 171 38 177 55 q 184 72 184 134 l 184 478 q 184 523 179 535 q 175 546 163 554 q 151 562 135 562 q 110 562 75 547 l 66 564 l 310 676 z"},"5":{"x_min":0,"x_max":500,"ha":500,"o":"m 152 662 l 462 662 l 413 536 l 152 536 l 127 470 q 296 464 387 386 q 461 322 461 227 q 461 166 427 108 q 392 49 329 18 q 266 -14 191 -14 q 110 -14 66 17 q 36 38 36 65 q 36 86 52 103 q 68 119 89 119 q 108 119 127 111 q 147 103 194 70 q 224 49 246 42 q 261 36 280 36 q 320 36 348 65 q 376 94 376 135 q 376 221 290 275 q 204 329 73 329 q 60 329 34 328 z"}}}
